<?xml version="1.0" standalone="no"?>
<!DOCTYPE svg PUBLIC "-//W3C//DTD SVG 20010904//EN"
 "http://www.w3.org/TR/2001/REC-SVG-20010904/DTD/svg10.dtd">
<svg version="1.0" xmlns="http://www.w3.org/2000/svg"
 width="300.000000pt" height="300.000000pt" viewBox="0 0 300.000000 300.000000"
 preserveAspectRatio="xMidYMid meet">
<metadata>
Created by potrace 1.10, written by Peter Selinger 2001-2011
</metadata>
<g transform="translate(0.000000,300.000000) scale(0.100000,-0.100000)"
fill="#000000" stroke="none">
<path d="M950 2080 c-198 -24 -372 -141 -449 -302 -55 -116 -61 -108 81 -108
l123 0 17 72 c48 196 158 309 302 310 134 1 212 -81 260 -271 l22 -87 112 30
112 31 -30 52 c-113 198 -321 301 -550 273z m-150 -85 c0 -2 -18 -32 -40 -66
-22 -35 -51 -97 -64 -138 l-24 -76 -77 -3 -77 -3 7 28 c7 31 80 136 116 170
26 23 139 93 152 93 4 0 7 -2 7 -5z m518 -39 c66 -49 147 -148 139 -169 -5
-13 -77 -37 -110 -37 -9 0 -20 23 -31 63 -9 34 -30 86 -46 116 -48 87 -40 91
48 27z"/>
<path d="M1665 2014 c4 -27 7 -115 8 -196 l2 -148 120 0 120 0 -3 181 -3 182
88 -5 c131 -8 193 -40 235 -121 16 -32 19 -54 16 -120 -2 -45 -7 -90 -12 -99
-8 -17 1 -18 112 -18 l120 0 13 38 c35 101 0 232 -76 284 -76 52 -133 60 -453
65 l-293 5 6 -48z m203 -11 c7 -14 10 -253 3 -285 0 -5 -34 -8 -75 -8 -68 0
-74 2 -80 23 -8 30 -8 272 1 280 3 4 37 7 74 7 55 0 70 -3 77 -17z m442 -9
c66 -20 123 -73 139 -129 14 -50 14 -70 0 -117 l-10 -38 -73 0 -74 0 -4 88
c-4 86 -17 124 -64 190 -16 21 -15 22 8 22 13 0 49 -7 78 -16z"/>
<path d="M552 1538 c-26 -26 0 -77 33 -64 23 8 18 23 -7 22 -30 -1 -30 28 0
32 12 2 20 8 17 13 -8 13 -29 11 -43 -3z"/>
<path d="M696 1514 c-9 -20 -14 -39 -10 -43 4 -3 9 0 11 7 3 6 13 12 23 12 10
0 20 -6 23 -12 2 -7 7 -10 11 -7 7 7 -24 79 -34 79 -3 0 -14 -16 -24 -36z"/>
<path d="M842 1513 c2 -31 7 -39 26 -41 12 -2 22 1 22 7 0 6 -7 11 -15 11 -10
0 -15 10 -15 30 0 17 -5 30 -11 30 -6 0 -9 -16 -7 -37z"/>
<path d="M980 1510 c0 -36 3 -40 25 -40 31 0 33 20 3 21 -17 1 -19 2 -5 6 9 2
17 8 17 13 0 5 -8 11 -17 13 -14 4 -12 5 5 6 30 1 28 21 -3 21 -22 0 -25 -4
-25 -40z"/>
<path d="M1120 1511 c0 -32 4 -41 18 -41 29 0 41 14 39 45 -2 25 -7 31 -30 33
-25 3 -27 1 -27 -37z"/>
<path d="M1379 1546 c0 -3 -1 -21 -2 -38 -1 -36 22 -49 48 -28 20 16 4 64 -23
68 -12 2 -22 1 -23 -2z"/>
<path d="M1520 1521 c0 -36 25 -59 48 -44 19 11 29 73 13 73 -6 0 -11 -13 -11
-30 0 -20 -5 -30 -15 -30 -10 0 -15 10 -15 30 0 17 -4 30 -10 30 -5 0 -10 -13
-10 -29z"/>
<path d="M1686 1534 c-20 -20 -20 -29 0 -49 21 -21 48 -15 52 10 2 15 1 17 -6
6 -12 -17 -42 -7 -42 14 0 9 9 15 26 15 14 0 23 4 19 10 -9 15 -31 12 -49 -6z"/>
<path d="M1830 1510 c0 -22 5 -40 10 -40 6 0 10 10 10 23 l0 22 18 -23 c22
-28 32 -20 32 25 0 36 -20 47 -21 11 l0 -23 -16 23 c-23 33 -33 27 -33 -18z"/>
<path d="M1996 1514 c-9 -20 -14 -39 -10 -43 4 -3 9 0 11 7 3 6 13 12 23 12
10 0 20 -6 23 -12 2 -7 7 -11 10 -7 7 6 -24 79 -33 79 -4 0 -14 -16 -24 -36z"/>
<path d="M2152 1538 c-26 -26 0 -77 33 -64 23 8 18 23 -7 22 -30 -1 -30 28 0
32 12 2 20 8 17 13 -8 13 -29 11 -43 -3z"/>
<path d="M2290 1508 c1 -38 2 -41 14 -25 12 15 15 16 26 2 7 -9 15 -13 18 -10
3 2 -1 11 -8 20 -10 12 -10 18 0 30 7 9 10 18 6 22 -3 4 -13 -2 -21 -13 -13
-17 -14 -17 -15 -1 0 9 -4 17 -10 17 -5 0 -10 -19 -10 -42z"/>
<path d="M2440 1510 c0 -22 5 -40 10 -40 6 0 10 18 10 40 0 22 -4 40 -10 40
-5 0 -10 -18 -10 -40z"/>
<path d="M462 1313 c52 -196 212 -351 411 -398 78 -18 236 -19 302 -1 146 39
254 133 328 286 54 111 66 150 45 150 -7 0 -23 -28 -36 -65 -81 -224 -259
-343 -473 -313 -152 20 -264 134 -315 317 l-17 61 -128 0 -127 0 10 -37z m240
-81 c48 -126 103 -195 208 -262 l35 -22 -55 6 c-109 11 -245 100 -319 210 -34
50 -64 124 -55 137 3 5 40 9 82 7 l76 -3 28 -73z"/>
<path d="M1674 1191 c-1 -87 -4 -185 -8 -216 l-6 -57 297 5 c224 4 314 9 361
21 175 44 257 139 257 296 0 30 -4 67 -8 83 l-7 27 -129 0 -130 0 10 -32 c24
-86 0 -214 -53 -274 -56 -63 -151 -94 -291 -94 l-58 0 3 200 3 200 -120 0
-120 0 -1 -159z m194 102 c13 -26 9 -310 -4 -323 -6 -6 -39 -10 -80 -8 l-69 3
-1 160 c0 88 2 166 4 173 3 8 27 12 73 12 55 0 70 -3 77 -17z m663 -4 c7 -14
9 -44 4 -83 -12 -117 -82 -189 -213 -220 -66 -15 -75 -9 -41 27 47 50 79 150
79 247 l0 50 80 0 c71 0 81 -2 91 -21z"/>
</g>
</svg>
